<?xml version="1.0" encoding="UTF-8" standalone="no"?>
<!DOCTYPE svg PUBLIC "-//W3C//DTD SVG 1.1//EN" "http://www.w3.org/Graphics/SVG/1.1/DTD/svg11.dtd">
<svg width="100%" height="100%" viewBox="0 0 1080 1080" version="1.1" xmlns="http://www.w3.org/2000/svg" xmlns:xlink="http://www.w3.org/1999/xlink" xml:space="preserve" xmlns:serif="http://www.serif.com/" style="fill-rule:evenodd;clip-rule:evenodd;stroke-linecap:round;stroke-linejoin:round;stroke-miterlimit:2;">
    <g transform="matrix(1.64437,0,0,1.64437,-282.186,-58.5513)">
        <g transform="matrix(1.37393,0,0,1.37393,-398.55,-321.591)">
            <circle cx="654" cy="499" r="218"/>
        </g>
        <g transform="matrix(0.949033,0,0,0.949033,17.5587,19.4541)">
            <g transform="matrix(-3.10585,-1.79316,-1.79316,3.10585,1841.01,-1143.61)">
                <path d="M182.329,551.761L174.478,551.887L146.589,510.137L139.747,502.286L149.324,502.368L182.329,551.761Z" style="fill:rgb(0,149,255);fill-rule:nonzero;stroke:rgb(0,149,255);stroke-width:2.14px;"/>
            </g>
            <g transform="matrix(3.10585,1.79316,1.79316,-3.10585,-824.312,1869.44)">
                <path d="M182.329,551.761L174.478,551.887L146.589,510.137L139.64,501.885L148.793,501.992L182.329,551.761Z" style="fill:rgb(0,149,255);fill-rule:nonzero;stroke:rgb(0,149,255);stroke-width:2.14px;"/>
            </g>
            <g transform="matrix(3.10585,1.79316,-1.79316,3.10585,943.827,-1660.27)">
                <path d="M213.734,597L204.614,597L146.589,510.137L146.589,597L139.64,597L139.64,501.885L149.195,501.885L206.785,588.574L206.785,501.885L213.734,501.885L213.734,597Z" style="fill:white;fill-rule:nonzero;stroke:white;stroke-width:2.14px;stroke-linecap:butt;"/>
            </g>
            <g transform="matrix(0.405323,0.234013,-1.59345,2.75994,653.241,-276.979)">
                <rect x="391" y="158" width="53" height="77"/>
            </g>
            <g transform="matrix(0.405323,0.234013,-1.59345,2.75994,561.612,-419.87)">
                <rect x="391" y="158" width="53" height="77"/>
            </g>
            <g transform="matrix(0.405323,0.234013,-1.59345,2.75994,720.018,-97.7831)">
                <rect x="391" y="158" width="53" height="77"/>
            </g>
        </g>
    </g>
</svg>
