<?xml version="1.0" encoding="UTF-8" standalone="no"?>
<!DOCTYPE svg PUBLIC "-//W3C//DTD SVG 1.1//EN" "http://www.w3.org/Graphics/SVG/1.1/DTD/svg11.dtd">
<svg width="100%" height="100%" viewBox="0 0 50 50" version="1.1" xmlns="http://www.w3.org/2000/svg" xmlns:xlink="http://www.w3.org/1999/xlink" xml:space="preserve" xmlns:serif="http://www.serif.com/" style="fill-rule:evenodd;clip-rule:evenodd;stroke-linecap:round;stroke-linejoin:round;stroke-miterlimit:2;">
    <g transform="matrix(0.0834679,0,0,0.0834679,-16.7339,-5.3823)">
        <g transform="matrix(1.37393,0,0,1.37393,-398.55,-321.591)">
            <circle cx="654" cy="499" r="218"/>
        </g>
        <g transform="matrix(0.661184,0,0,0.661184,137.01,-6.26324)">
            <rect x="96" y="107" width="906" height="906"/>
        </g>
        <g transform="matrix(0.949033,0,0,0.949033,112.98,-16.6919)">
            <g>
                <g transform="matrix(0.745907,0,0,0.745907,-19.9057,60.417)">
                    <g transform="matrix(-3.10585,-1.79316,-1.79316,3.10585,1841.01,-1143.61)">
                        <path d="M181.29,550.206L172.869,549.478L146.589,510.137L139.747,502.286L149.324,502.368L181.29,550.206Z" style="fill:rgb(0,149,255);fill-rule:nonzero;stroke:rgb(0,149,255);stroke-width:4.72px;"/>
                    </g>
                    <g transform="matrix(3.10585,1.79316,-1.79316,3.10585,943.827,-1660.27)">
                        <path d="M145.895,501.885L146.589,510.137L146.589,597L139.64,597L139.64,501.885L145.895,501.885Z" style="fill:white;fill-rule:nonzero;stroke:white;stroke-width:4.72px;stroke-linecap:butt;"/>
                    </g>
                    <g transform="matrix(3.10585,1.79316,-1.79316,3.10585,944.382,-1661.98)">
                        <path d="M177.905,545.195L170.301,545.633L146.589,510.137L139.64,501.885L148.793,501.992L177.905,545.195Z" style="fill:rgb(0,149,255);fill-rule:nonzero;stroke:rgb(0,149,255);stroke-width:4.72px;"/>
                    </g>
                    <g transform="matrix(0.405323,0.234013,-1.81829,3.14936,630.547,-549.956)">
                        <rect x="391" y="158" width="53" height="77"/>
                    </g>
                </g>
                <g transform="matrix(0.745907,0,0,0.745907,235.443,60.417)">
                    <g transform="matrix(-3.10585,-1.79316,-1.79316,3.10585,1841.01,-1143.61)">
                        <path d="M181.29,550.206L172.869,549.478L146.589,510.137L139.747,502.286L149.324,502.368L181.29,550.206Z" style="fill:rgb(0,149,255);fill-rule:nonzero;stroke:rgb(0,149,255);stroke-width:4.72px;"/>
                    </g>
                    <g transform="matrix(3.10585,1.79316,-1.79316,3.10585,943.827,-1660.27)">
                        <path d="M145.895,501.885L146.589,510.137L146.589,597L139.64,597L139.64,501.885L145.895,501.885Z" style="fill:white;fill-rule:nonzero;stroke:white;stroke-width:4.72px;stroke-linecap:butt;"/>
                    </g>
                    <g transform="matrix(3.10585,1.79316,-1.79316,3.10585,944.382,-1661.98)">
                        <path d="M177.905,545.195L170.301,545.633L146.589,510.137L139.64,501.885L148.793,501.992L177.905,545.195Z" style="fill:rgb(0,149,255);fill-rule:nonzero;stroke:rgb(0,149,255);stroke-width:4.72px;"/>
                    </g>
                    <g transform="matrix(0.405323,0.234013,-1.22287,2.11807,508.311,-336.238)">
                        <rect x="391" y="158" width="53" height="77"/>
                    </g>
                </g>
                <g transform="matrix(0.745907,0,0,0.745907,82.5229,200.254)">
                    <g transform="matrix(3.10585,1.79316,1.79316,-3.10585,-824.312,1869.44)">
                        <path d="M180.988,549.771L172.549,548.999L146.589,510.137L139.64,501.885L148.793,501.992L180.988,549.771Z" style="fill:rgb(0,149,255);fill-rule:nonzero;stroke:rgb(0,149,255);stroke-width:4.72px;"/>
                    </g>
                    <g transform="matrix(3.10585,1.79316,-1.79316,3.10585,943.827,-1660.27)">
                        <path d="M213.734,597L207.058,596.695L206.785,588.574L206.785,501.885L213.734,501.885L213.734,597Z" style="fill:white;fill-rule:nonzero;stroke:white;stroke-width:4.72px;stroke-linecap:butt;"/>
                    </g>
                    <g transform="matrix(-3.10585,-1.79316,1.79316,-3.10585,71.274,2388.86)">
                        <path d="M177.905,545.195L170.301,545.633L146.589,510.137L139.64,501.885L148.793,501.992L177.905,545.195Z" style="fill:rgb(0,149,255);fill-rule:nonzero;stroke:rgb(0,149,255);stroke-width:4.72px;"/>
                    </g>
                    <g transform="matrix(0.405323,0.234013,-1.59345,2.75994,725.33,-97.7831)">
                        <rect x="391" y="158" width="53" height="77"/>
                    </g>
                </g>
                <g transform="matrix(0.745907,0,0,0.745907,-172.826,200.254)">
                    <g transform="matrix(3.10585,1.79316,1.79316,-3.10585,-824.312,1869.44)">
                        <path d="M180.988,549.771L172.549,548.999L146.589,510.137L139.64,501.885L148.793,501.992L180.988,549.771Z" style="fill:rgb(0,149,255);fill-rule:nonzero;stroke:rgb(0,149,255);stroke-width:4.72px;"/>
                    </g>
                    <g transform="matrix(3.10585,1.79316,-1.79316,3.10585,943.827,-1660.27)">
                        <path d="M213.734,597L207.058,596.695L206.785,588.574L206.785,501.885L213.734,501.885L213.734,597Z" style="fill:white;fill-rule:nonzero;stroke:white;stroke-width:4.72px;stroke-linecap:butt;"/>
                    </g>
                    <g transform="matrix(-3.10585,-1.79316,1.79316,-3.10585,71.274,2388.86)">
                        <path d="M177.905,545.195L170.301,545.633L146.589,510.137L139.64,501.885L148.793,501.992L177.905,545.195Z" style="fill:rgb(0,149,255);fill-rule:nonzero;stroke:rgb(0,149,255);stroke-width:4.72px;"/>
                    </g>
                    <g transform="matrix(0.405323,0.234013,-1.59345,2.75994,725.33,-97.7831)">
                        <rect x="391" y="158" width="53" height="77"/>
                    </g>
                </g>
            </g>
        </g>
    </g>
</svg>
